<?xml version="1.0" encoding="UTF-8" standalone="no"?>
<!-- Created with Inkscape (http://www.inkscape.org/) -->

<svg
   xmlns:dc="http://purl.org/dc/elements/1.1/"
   xmlns:cc="http://creativecommons.org/ns#"
   xmlns:rdf="http://www.w3.org/1999/02/22-rdf-syntax-ns#"
   xmlns:svg="http://www.w3.org/2000/svg"
   xmlns="http://www.w3.org/2000/svg"
   xmlns:sodipodi="http://sodipodi.sourceforge.net/DTD/sodipodi-0.dtd"
   xmlns:inkscape="http://www.inkscape.org/namespaces/inkscape"
   width="178"
   height="154"
   id="svg2"
   version="1.1"
   inkscape:version="0.48.2 r9819"
   sodipodi:docname="Logo.svg">
  <defs
     id="defs4" />
  <sodipodi:namedview
     id="base"
     pagecolor="#000000"
     bordercolor="#666666"
     borderopacity="1.0"
     inkscape:pageopacity="0"
     inkscape:pageshadow="2"
     inkscape:zoom="0.5"
     inkscape:cx="-256.74221"
     inkscape:cy="86.25243"
     inkscape:document-units="px"
     inkscape:current-layer="g4666"
     showgrid="false"
     inkscape:window-width="1239"
     inkscape:window-height="719"
     inkscape:window-x="0"
     inkscape:window-y="0"
     inkscape:window-maximized="0">
    <inkscape:grid
       type="xygrid"
       id="grid3821"
       empspacing="5"
       visible="true"
       enabled="true"
       snapvisiblegridlinesonly="true" />
  </sodipodi:namedview>
  <metadata
     id="metadata7">
    <rdf:RDF>
      <cc:Work
         rdf:about="">
        <dc:format>image/svg+xml</dc:format>
        <dc:type
           rdf:resource="http://purl.org/dc/dcmitype/StillImage" />
        <dc:title />
      </cc:Work>
    </rdf:RDF>
  </metadata>
  <g
     inkscape:label="Capa 1"
     inkscape:groupmode="layer"
     id="layer1"
     transform="translate(0,-898.36217)">
    <rect
       style="fill:none;stroke-width:0.98699999;stroke-miterlimit:5;stroke-dasharray:none"
       id="rect3759"
       width="78.5"
       height="16.5"
       x="187.5"
       y="77.362183" />
    <path
       style="fill:#f39c12;fill-opacity:0;stroke-width:1;stroke-miterlimit:4;stroke-dasharray:none"
       d="m 216.98207,111.66425 c -6.24029,-1.4546 -10.65245,-8.4187 -9.26269,-14.620116 1.99655,-8.908992 12.25763,-13.004658 19.47773,-7.774447 8.81423,6.384995 6.04336,20.000463 -4.56842,22.448243 -2.49721,0.57602 -2.96418,0.57158 -5.64662,-0.0537 z"
       id="path3830"
       inkscape:connector-curvature="0" />
    <path
       style="fill:#f39c12;fill-opacity:0;stroke-width:1;stroke-miterlimit:4;stroke-dasharray:none"
       d="m 216.98207,111.66425 c -6.24029,-1.4546 -10.65245,-8.4187 -9.26269,-14.620116 1.99655,-8.908992 12.25763,-13.004658 19.47773,-7.774447 8.81423,6.384995 6.04336,20.000463 -4.56842,22.448243 -2.49721,0.57602 -2.96418,0.57158 -5.64662,-0.0537 z"
       id="path3832"
       inkscape:connector-curvature="0" />
    <g
       id="g4666"
       transform="translate(-130.5625,813.72595)">
      <path
         id="path2985"
         d="m 190,107 0,15.375 c 6.96153,0.88813 13.36065,3.61016 18.6875,7.65625 -4.93888,7.02461 -8.27255,15.26703 -9.4375,24.1875 5.45261,0.0326 10.01298,0.0659 14.9375,0.0937 0.82848,-4.57025 2.45539,-8.87522 4.71875,-12.75 2.30689,3.96008 3.94431,8.38113 4.75,13.0625 6.95182,0.0125 11.62984,-0.0265 15.90625,-0.0312 -1.13959,-9.25973 -4.63182,-17.80932 -9.8125,-25.03125 5.251,-3.82308 11.48253,-6.36273 18.25,-7.1875 -0.007,-6.39447 -0.0151,-11.08851 -0.0312,-15.28125 -10.74344,1.04106 -20.56139,5.19822 -28.5625,11.5625 C 211.20234,112.11814 201.0752,107.90657 190,107 z m 67.78125,0.0312 0,15.375 c 17.09791,2.18129 30.7541,15.38734 33.65625,32.25 6.95182,0.0125 11.62984,-0.0265 15.90625,-0.0312 -3.13305,-25.45766 -23.80149,-45.48505 -49.5625,-47.59375 z m -77.59375,0.0312 c -25.24679,2.44647 -45.45413,22.12647 -48.71875,47.125 5.45261,0.0326 10.01298,0.0659 14.9375,0.0937 3.04006,-16.77023 16.72855,-29.85543 33.8125,-31.9375 -0.007,-6.39447 -0.0151,-11.08851 -0.0312,-15.28125 z m -49.125,57.09375 c 1.38181,26.9553 22.369,48.71962 48.96875,51.375 0.0183,-5.69206 0.0478,-10.18955 0.0625,-15.3125 -18.4142,-2.3011 -32.86338,-17.341 -34.21875,-36.03125 l -14.8125,-0.0312 z m 67.78125,0.0312 c 0.54095,10.55243 4.10179,20.27994 9.8125,28.40625 -5.32359,4.02473 -11.70971,6.74028 -18.65625,7.625 l 0,15.40625 c 11.06005,-0.90533 21.20358,-5.10424 29.40625,-11.625 7.96544,6.32814 17.72445,10.49617 28.40625,11.5625 0.0183,-5.69206 0.0478,-10.18955 0.0625,-15.3125 -6.70976,-0.83847 -12.87853,-3.406 -18.09375,-7.1875 5.85012,-8.14247 9.51808,-17.95352 10.125,-28.59375 L 224.125,164.4061 c -0.473,6.05258 -2.33911,11.68736 -5.25,16.65625 -2.92919,-5.01678 -4.77511,-10.72607 -5.21875,-16.84375 l -14.8125,-0.0312 z m 93.0625,0.25 c -1.4502,18.55683 -15.82714,33.48207 -34.125,35.8125 l 0,15.40625 c 26.95472,-2.20641 48.3584,-24.02017 49.90625,-51.15625 l -15.78125,-0.0625 z"
         style="fill:#f1c40f;fill-opacity:1;stroke:#ffffff;stroke-width:1px;stroke-linecap:butt;stroke-linejoin:miter;stroke-opacity:1"
         inkscape:connector-curvature="0" />
      <path
         transform="matrix(1.35,0,0,1.35,-11.011787,84.193721)"
         d="m 180.66578,104.48554 c 0,5.27208 -4.27386,9.54594 -9.54594,9.54594 -5.27208,0 -9.54594,-4.27386 -9.54594,-9.54594 0,-5.272076 4.27386,-9.545939 9.54594,-9.545939 5.27208,0 9.54594,4.273863 9.54594,9.545939 z"
         sodipodi:ry="9.5459414"
         sodipodi:rx="9.5459414"
         sodipodi:cy="104.48554"
         sodipodi:cx="171.11984"
         id="path3811"
         style="fill:#f1c40f;fill-opacity:1;stroke:#ffffff;stroke-width:0.74074072000000002;stroke-miterlimit:5;stroke-opacity:1;stroke-dasharray:none"
         sodipodi:type="arc" />
      <path
         inkscape:connector-curvature="0"
         id="path3834"
         d="m 216.63265,110.66425 c -6.24029,-1.4546 -10.65245,-8.4187 -9.26269,-14.620116 1.99655,-8.908992 12.25763,-13.004658 19.47773,-7.774447 8.81423,6.384995 6.04336,20.000463 -4.56842,22.448243 -2.49721,0.57602 -2.96418,0.57158 -5.64662,-0.0537 z"
         style="fill:#f1c40f;fill-opacity:1;stroke:#ffffff;stroke-width:1;stroke-miterlimit:4;stroke-opacity:1;stroke-dasharray:none" />
    </g>
  </g>
</svg>
